<svg width="77" height="77" viewBox="0 0 77 77" fill="none" xmlns="http://www.w3.org/2000/svg">
<path d="M5.99585 73.139C5.99585 73.139 10.9688 64.4995 19.1692 64.0823C19.1692 64.0823 21.9138 64.0164 26.1183 65.8827C30.74 67.9355 32.694 66.4316 32.694 66.4316C32.694 66.4316 28.5773 75.9823 19.8609 76.1579C14.7781 76.2677 11.6824 71.8876 5.99585 73.139Z" fill="#003B23"/>
<path d="M3.02094 70.1641C3.02094 70.1641 11.6605 65.1912 12.0776 56.9907C12.0776 56.9907 12.1435 54.2463 10.2773 50.0418C8.22441 45.4201 9.72838 43.4661 9.72838 43.4661C9.72838 43.4661 0.177677 47.5828 0.00203194 56.2992C-0.107746 61.3819 4.27241 64.4776 3.02094 70.1641Z" fill="#003B23"/>
<path d="M18.4009 60.7341C18.4009 60.7341 23.3738 52.0946 31.5743 51.6774C31.5743 51.6774 34.3187 51.6116 38.5232 53.4778C43.1449 55.5306 45.0989 54.0267 45.0989 54.0267C45.0989 54.0267 40.9823 63.5774 32.2659 63.753C27.1832 63.8628 24.0874 59.4826 18.4009 60.7341Z" fill="#003B23"/>
<path d="M15.4259 57.7591C15.4259 57.7591 24.0655 52.7862 24.4826 44.5857C24.4826 44.5857 24.5485 41.8413 22.6823 37.6368C20.6294 33.0151 22.1334 31.061 22.1334 31.061C22.1334 31.061 12.5827 35.1777 12.407 43.8941C12.2973 48.9769 16.6774 52.0726 15.4259 57.7591Z" fill="#003B23"/>
<path d="M30.8059 48.3291C30.8059 48.3291 35.7788 39.6895 43.9793 39.2724C43.9793 39.2724 46.7237 39.2065 50.9282 41.0727C55.5499 43.1256 57.5039 41.6216 57.5039 41.6216C57.5039 41.6216 53.3873 51.1724 44.6709 51.348C39.5881 51.4578 36.4924 47.0776 30.8059 48.3291Z" fill="#003B23"/>
<path d="M27.8308 45.3542C27.8308 45.3542 36.4704 40.3813 36.8875 32.1808C36.8875 32.1808 36.9534 29.4363 35.0871 25.2318C33.0343 20.6102 34.5383 18.6561 34.5383 18.6561C34.5383 18.6561 24.9876 22.7838 24.8119 31.4892C24.7021 36.572 29.0823 39.6677 27.8308 45.3542Z" fill="#003B23"/>
<path d="M57.5039 18.4915C57.5039 18.4915 48.7436 18.0633 44.3414 22.4654C39.9393 26.8675 40.5542 35.4412 40.5542 35.4412C40.5542 35.4412 49.1278 36.067 53.5299 31.6649C57.932 27.2627 57.5039 18.5024 57.5039 18.5024V18.4915Z" fill="#003B23"/>
<path d="M52.7045 4.30508e-05L37.1511 15.5588L39.2396 17.6466L54.7929 2.08779L52.7045 4.30508e-05Z" fill="#003B23"/>
<path d="M74.0628 21.4164L58.504 36.9697L60.5917 39.0582L76.1505 23.5048L74.0628 21.4164Z" fill="#003B23"/>
<path d="M63.2788 10.5967L59.6854 14.1914L61.7739 16.2792L65.3673 12.6845L63.2788 10.5967Z" fill="#003B23"/>
</svg>
