<svg width="77" height="77" viewBox="0 0 77 77" fill="none" xmlns="http://www.w3.org/2000/svg">
<path d="M65.7903 12.7504C62.8766 15.6641 58.1389 15.6641 55.2252 12.7504C52.3115 9.83672 52.3115 5.09898 55.2252 2.18528C58.1389 -0.728425 62.8766 -0.728425 65.7903 2.18528C68.704 5.09898 68.704 9.83672 65.7903 12.7504Z" fill="#003B23"/>
<path d="M68.704 23.1261C72.8316 23.1261 76.1778 19.78 76.1778 15.6523C76.1778 11.5247 72.8316 8.17859 68.704 8.17859C64.5763 8.17859 61.2302 11.5247 61.2302 15.6523C61.2302 19.78 64.5763 23.1261 68.704 23.1261Z" fill="#003B23"/>
<path d="M67.3947 16.9556L59.2038 8.76465L44.1703 23.7981L52.3613 31.989L67.3947 16.9556Z" fill="#003B23"/>
<path d="M34.7345 41.4256C45.3944 52.0855 49.0188 65.813 43.0611 72.4814C43.3809 72.1734 43.7125 71.8655 44.0323 71.5457C59.1575 56.4205 62.5924 35.3376 51.7074 24.4527C40.8225 13.5678 19.7396 17.0026 4.61444 32.1278C4.29464 32.4476 3.98668 32.7674 3.67873 33.099C10.3471 27.1532 24.0746 30.7776 34.7345 41.4256Z" fill="#003B23"/>
<path d="M32.6381 43.5219C42.1846 53.0684 45.8208 65.5523 40.5737 70.7993C35.3267 76.0464 22.8428 72.3983 13.2963 62.8637C3.74977 53.3172 0.113587 40.8332 5.36062 35.5862C10.6076 30.3392 23.0916 33.9872 32.6381 43.5219ZM34.7345 41.4255C23.8496 30.5405 9.75486 26.9872 3.25233 33.4897C-3.2502 39.9923 0.303076 54.087 11.188 64.972C22.0729 75.8569 36.1677 79.4101 42.6702 72.9076C49.1727 66.4051 45.6194 52.3104 34.7345 41.4255Z" fill="#003B23"/>
<path d="M29.7007 59.9263C27.474 62.153 22.6652 60.933 18.9342 57.2139C15.2151 53.4948 13.9951 48.6742 16.2219 46.4474C18.4486 44.2207 23.2574 45.4407 26.9883 49.1598C30.7075 52.8789 31.9274 57.6995 29.7007 59.9263Z" fill="#003B23"/>
</svg>
