<svg width="113" height="57" viewBox="0 0 113 57" fill="none" xmlns="http://www.w3.org/2000/svg">
<path d="M43.1693 29.1684C44.6866 26.4062 42.9111 23.1718 39.9463 22.4239C37.2414 21.7404 33.7736 23.2709 33.5504 26.3038C33.3172 29.4837 36.9082 31.1298 39.1352 32.6008C41.0939 33.8952 44.2702 36.7003 42.5014 39.3139C41.8101 40.3342 40.416 40.922 39.2268 40.4515C37.9459 39.943 37.313 38.5924 37.4812 37.2931C37.5678 36.6293 36.8449 36.0548 36.232 36.0548C35.4858 36.0548 35.0694 36.626 34.9828 37.2931C34.6463 39.8984 36.6517 42.5895 39.2717 43.0172C42.04 43.4679 44.9032 41.4999 45.3645 38.7344C45.8775 35.6552 43.8755 33.0186 41.532 31.2602C40.3427 30.3687 39.0419 29.6455 37.8177 28.8051C36.9699 28.2223 35.6041 27.1657 36.1687 25.9885C37.4063 23.4063 42.518 25.1778 41.0106 27.9218C40.2411 29.3219 42.3981 30.5734 43.1676 29.1717L43.1693 29.1684Z" fill="#021A1A"/>
<path d="M45.7144 26.1568C46.6172 30.2216 47.0619 36.9777 47.4 41.1267C47.5316 42.7315 49.7285 42.7051 49.8984 41.1267C50.0583 39.6424 50.2032 38.1565 50.3765 36.6755C50.4198 36.3073 50.6579 34.3162 51.4308 34.7669C51.7206 34.9353 51.7989 35.6007 51.8572 35.8748C51.9821 36.4708 52.0454 37.0817 52.1303 37.6843C52.3385 39.1636 52.5484 40.6429 52.7566 42.1206C52.8499 42.781 53.7043 43.1492 54.294 42.9857C55.0135 42.786 55.26 42.1305 55.1668 41.4618C54.8886 39.4905 54.6637 37.5043 54.329 35.5429C54.0791 34.0834 53.3446 32.5347 51.7239 32.2607C49.9234 31.9552 48.5293 33.4626 48.1229 35.0625C47.6315 37.0008 47.6132 39.1405 47.4 41.125H49.8984C49.542 36.7597 49.0723 29.7742 48.1229 25.498C47.7781 23.9428 45.368 24.5999 45.7144 26.1568Z" fill="#021A1A"/>
<path d="M60.8431 31.148C61.0346 29.8982 62.1189 28.8977 63.4481 29.3748C64.9355 29.9081 64.9988 31.7242 65.0504 33.0467C65.2053 36.9398 65.3269 40.8346 65.4635 44.7293C65.5201 46.3193 68.0185 46.3259 67.9619 44.7293C67.8703 42.162 67.7803 39.593 67.6887 37.0257C67.6454 35.7956 67.6021 34.564 67.5588 33.334C67.5205 32.2839 67.4805 31.1942 67.1674 30.1822C66.5461 28.1729 64.7589 26.6754 62.5703 26.7893C60.5233 26.895 58.7411 28.475 58.4313 30.4892C58.3296 31.1546 58.6011 31.8134 59.304 32.0131C59.8937 32.1799 60.7398 31.8084 60.8414 31.148H60.8431Z" fill="#021A1A"/>
<path d="M65.7732 37.1164C64.0609 35.5413 61.8673 33.8639 59.3739 34.6432C57.2419 35.3085 56.2359 37.62 56.4524 39.7036C56.6773 41.8697 58.193 43.9649 60.5981 43.8229C63.0915 43.6743 64.5573 41.6452 65.6782 39.6772C66.4694 38.287 64.3124 37.0388 63.5213 38.4273C62.9116 39.4972 62.2371 40.8345 60.9779 41.2539C59.7187 41.6732 59.0291 40.5819 58.9292 39.4724C58.8392 38.4554 59.2023 37.1065 60.3899 36.953C61.8273 36.7664 63.0466 37.9882 64.006 38.8698C65.1835 39.9529 66.9541 38.2061 65.7732 37.1181V37.1164Z" fill="#021A1A"/>
<path d="M68.5016 33.527C70.7868 36.8257 72.529 40.4266 73.665 44.2669C74.1163 45.7924 76.5281 45.1436 76.0734 43.6081C74.8792 39.5747 73.0587 35.7426 70.6585 32.2771C69.7541 30.9712 67.5871 32.2095 68.5016 33.527Z" fill="#021A1A"/>
<path d="M77.9238 33.4512C74.7724 32.0644 71.4196 33.9647 71.0898 37.379C70.9365 38.964 73.4366 38.9541 73.5882 37.379C73.7281 35.9344 75.3154 34.9966 76.6629 35.5893C77.2842 35.8634 77.9987 35.7627 78.3718 35.1452C78.6883 34.6202 78.5384 33.722 77.9238 33.4512Z" fill="#021A1A"/>
<path d="M80.4291 33.5948C80.4124 35.1947 80.3791 36.7962 80.3774 38.3977C80.3774 39.7548 80.484 41.1879 81.2802 42.3403C81.9731 43.3442 83.0641 44.064 84.3249 44.0128C85.5858 43.9616 86.7001 43.1328 87.0799 41.9226C87.5579 40.3971 85.1477 39.7449 84.6714 41.2639C84.5431 41.6717 83.9768 41.5495 83.712 41.3613C83.1307 40.9452 82.9591 40.118 82.9025 39.4609C82.7409 37.5292 82.9058 35.5315 82.9258 33.5948C82.9425 32 80.4441 32 80.4274 33.5948H80.4291Z" fill="#021A1A"/>
<path d="M82.0979 29.2673C83.7052 29.2673 83.7085 26.7908 82.0979 26.7908C80.4872 26.7908 80.4872 29.2673 82.0979 29.2673Z" fill="#021A1A"/>
<path d="M87.2447 32.5579C89.0352 35.642 90.0046 39.0926 90.0712 42.6506H92.5697C92.503 40.7965 92.4864 38.9424 92.5297 37.0866C92.548 36.2611 92.2149 32.822 93.579 32.8105C95.0198 32.7973 95.3362 35.5644 95.5278 36.5203C95.9009 38.3926 96.0591 40.288 96.0541 42.1932C96.0508 43.7865 98.5492 43.7898 98.5525 42.1932C98.5592 39.6507 98.276 37.0899 97.6614 34.62C97.1551 32.5876 95.9575 30.3455 93.534 30.3389C90.9673 30.3306 90.2028 32.9591 90.1029 35.0212C89.978 37.5621 89.9813 40.108 90.0729 42.6506C90.1295 44.2372 92.6013 44.2504 92.5713 42.6506C92.4964 38.6601 91.4121 34.7669 89.4033 31.308C88.6022 29.9278 86.4419 31.1727 87.2464 32.5579H87.2447Z" fill="#021A1A"/>
<path d="M111.088 32.913C110.062 30.8806 107.68 29.9098 105.478 30.3324C103.128 30.7848 101.374 32.7099 100.626 34.886C99.8783 37.062 99.8817 40.0322 101.456 41.8616C103.141 43.818 105.871 43.5621 107.447 41.6502C109.214 39.5055 110.375 36.7137 111.269 34.1166C111.789 32.6043 109.377 31.9554 108.861 33.4578C108.14 35.553 107.197 37.5887 105.986 39.4527C105.6 40.0471 105 40.9403 104.169 40.7653C103.246 40.5721 102.853 39.5369 102.725 38.7246C102.428 36.8325 102.991 34.5393 104.614 33.3687C106.044 32.3368 108.091 32.5002 108.931 34.1628C109.65 35.5877 111.806 34.3362 111.088 32.913Z" fill="#021A1A"/>
<path d="M110.5 30.9731C110.27 34.0852 110.058 37.2007 109.807 40.3113C109.594 42.943 109.152 45.5698 107.46 47.6979C104.795 51.0479 99.3403 53.0654 95.4844 50.4667C94.7065 49.9417 93.8188 48.989 93.8421 47.9885C93.8454 47.8713 93.8454 47.6071 93.9453 47.513C93.8837 47.5708 93.9187 47.4057 94.1052 47.5824C94.6049 48.0562 94.6666 48.7728 94.7682 49.4282C94.9814 50.7936 97.3748 50.4882 97.2216 49.0997C97.1683 48.6176 96.9584 47.5807 97.3315 47.1696C97.6163 46.8559 98.0327 47.1201 98.2409 47.4255C99.0821 48.6605 97.688 50.8646 96.9018 51.8073C94.6482 54.5084 90.784 55.3488 87.5994 53.8051C86.1603 53.1084 84.8927 55.2431 86.3385 55.9432C91.342 58.3685 97.6297 56.5177 100.088 51.4342C101.177 49.1806 101.517 45.6622 98.5291 44.698C97.3265 44.31 96.009 44.6997 95.2878 45.753C94.6199 46.7271 94.6016 47.9687 94.7248 49.0997L97.1783 48.7711C96.9201 47.1201 96.2039 45.3882 94.3418 45.0811C92.5979 44.7921 91.387 46.283 91.3487 47.8911C91.272 51.0248 94.4284 53.2305 97.2049 53.8431C103.638 55.2629 110.21 50.6698 111.717 44.4768C112.222 42.4031 112.314 40.2419 112.47 38.122C112.647 35.7396 112.823 33.3571 112.998 30.9764C113.117 29.3864 110.616 29.393 110.5 30.9764V30.9731Z" fill="#021A1A"/>
<path d="M54.6704 55.821L51.6123 48.8867H53.0214L55.7497 55.1573H54.9402L57.6984 48.8867H58.9976L55.9496 55.821H54.6704Z" fill="#021A1A"/>
<path d="M62.9451 55.92C62.3988 55.92 61.8957 55.8309 61.436 55.6526C60.9763 55.4742 60.5766 55.2249 60.2368 54.9046C59.897 54.5843 59.6339 54.2079 59.4473 53.7753C59.2608 53.3428 59.1675 52.8689 59.1675 52.3538C59.1675 51.8387 59.2608 51.3648 59.4473 50.9323C59.6339 50.4997 59.897 50.1233 60.2368 49.803C60.5766 49.4827 60.9763 49.2334 61.436 49.0551C61.8957 48.8768 62.3954 48.7876 62.9351 48.7876C63.4747 48.7876 63.9828 48.8768 64.4391 49.0551C64.8955 49.2334 65.2936 49.4827 65.6334 49.803C65.9732 50.1233 66.2363 50.4997 66.4229 50.9323C66.6094 51.3648 66.7027 51.8387 66.7027 52.3538C66.7027 52.8689 66.6094 53.3444 66.4229 53.7803C66.2363 54.2162 65.9732 54.5926 65.6334 54.9096C65.2936 55.2266 64.8955 55.4742 64.4391 55.6526C63.9828 55.8309 63.4847 55.92 62.9451 55.92ZM62.9351 54.7907C63.2882 54.7907 63.6147 54.7313 63.9145 54.6124C64.2143 54.4935 64.4741 54.3235 64.694 54.1022C64.9138 53.881 65.0854 53.6234 65.2086 53.3296C65.3319 53.0357 65.3935 52.7104 65.3935 52.3538C65.3935 51.9972 65.3319 51.6719 65.2086 51.3781C65.0854 51.0842 64.9138 50.8266 64.694 50.6054C64.4741 50.3841 64.2143 50.2141 63.9145 50.0952C63.6147 49.9763 63.2882 49.9169 62.9351 49.9169C62.582 49.9169 62.2572 49.9763 61.9607 50.0952C61.6642 50.2141 61.4044 50.3841 61.1812 50.6054C60.958 50.8266 60.7848 51.0842 60.6615 51.3781C60.5383 51.6719 60.4766 51.9972 60.4766 52.3538C60.4766 52.7104 60.5383 53.0274 60.6615 53.3246C60.7848 53.6218 60.9563 53.881 61.1762 54.1022C61.3961 54.3235 61.6559 54.4935 61.9557 54.6124C62.2555 54.7313 62.582 54.7907 62.9351 54.7907Z" fill="#021A1A"/>
<path d="M71.3199 55.92C70.7869 55.92 70.2922 55.8325 69.8358 55.6575C69.3795 55.4825 68.9831 55.2348 68.6466 54.9146C68.3101 54.5943 68.0487 54.2162 67.8621 53.7803C67.6756 53.3444 67.5823 52.8689 67.5823 52.3538C67.5823 51.8387 67.6756 51.3632 67.8621 50.9273C68.0487 50.4915 68.3118 50.1134 68.6516 49.7931C68.9914 49.4728 69.3878 49.2251 69.8408 49.0501C70.2939 48.8751 70.7902 48.7876 71.3299 48.7876C71.9029 48.7876 72.4259 48.885 72.8989 49.0798C73.3719 49.2746 73.7717 49.5636 74.0981 49.9466L73.2587 50.7292C73.0055 50.4584 72.7224 50.2554 72.4092 50.12C72.0961 49.9846 71.7563 49.9169 71.3899 49.9169C71.0234 49.9169 70.6886 49.9763 70.3855 50.0952C70.0824 50.2141 69.8192 50.3825 69.596 50.6004C69.3728 50.8184 69.1996 51.0759 69.0763 51.3731C68.9531 51.6703 68.8914 51.9972 68.8914 52.3538C68.8914 52.7104 68.9531 53.0373 69.0763 53.3345C69.1996 53.6317 69.3728 53.8893 69.596 54.1072C69.8192 54.3251 70.0824 54.4935 70.3855 54.6124C70.6886 54.7313 71.0234 54.7907 71.3899 54.7907C71.7563 54.7907 72.0961 54.723 72.4092 54.5877C72.7224 54.4523 73.0055 54.2459 73.2587 53.9685L74.0981 54.761C73.7717 55.1374 73.3719 55.4247 72.8989 55.6228C72.4259 55.821 71.8995 55.92 71.3199 55.92Z" fill="#021A1A"/>
<path d="M78.4754 55.92C77.929 55.92 77.426 55.8309 76.9663 55.6526C76.5066 55.4742 76.1069 55.2249 75.7671 54.9046C75.4273 54.5843 75.1641 54.2079 74.9776 53.7753C74.791 53.3428 74.6978 52.8689 74.6978 52.3538C74.6978 51.8387 74.791 51.3648 74.9776 50.9323C75.1641 50.4997 75.4273 50.1233 75.7671 49.803C76.1069 49.4827 76.5066 49.2334 76.9663 49.0551C77.426 48.8768 77.9257 48.7876 78.4654 48.7876C79.005 48.7876 79.513 48.8768 79.9694 49.0551C80.4258 49.2334 80.8239 49.4827 81.1637 49.803C81.5034 50.1233 81.7666 50.4997 81.9532 50.9323C82.1397 51.3648 82.233 51.8387 82.233 52.3538C82.233 52.8689 82.1397 53.3444 81.9532 53.7803C81.7666 54.2162 81.5034 54.5926 81.1637 54.9096C80.8239 55.2266 80.4258 55.4742 79.9694 55.6526C79.513 55.8309 79.015 55.92 78.4754 55.92ZM78.4654 54.7907C78.8185 54.7907 79.1449 54.7313 79.4447 54.6124C79.7446 54.4935 80.0044 54.3235 80.2243 54.1022C80.4441 53.881 80.6157 53.6234 80.7389 53.3296C80.8622 53.0357 80.9238 52.7104 80.9238 52.3538C80.9238 51.9972 80.8622 51.6719 80.7389 51.3781C80.6157 51.0842 80.4441 50.8266 80.2243 50.6054C80.0044 50.3841 79.7446 50.2141 79.4447 50.0952C79.1449 49.9763 78.8185 49.9169 78.4654 49.9169C78.1123 49.9169 77.7875 49.9763 77.491 50.0952C77.1945 50.2141 76.9347 50.3841 76.7115 50.6054C76.4883 50.8266 76.3151 51.0842 76.1918 51.3781C76.0686 51.6719 76.0069 51.9972 76.0069 52.3538C76.0069 52.7104 76.0686 53.0274 76.1918 53.3246C76.3151 53.6218 76.4866 53.881 76.7065 54.1022C76.9263 54.3235 77.1862 54.4935 77.486 54.6124C77.7858 54.7313 78.1123 54.7907 78.4654 54.7907Z" fill="#021A1A"/>
<path d="M60.2335 15.9205C61.0613 16.3761 62.1323 16.3283 62.9135 15.7999C61.546 14.1638 59.932 12.5342 58.5662 10.898C57.3703 9.4666 56.1494 8.01369 54.5854 7.01152C51.4125 4.97911 47.1085 5.18549 43.9272 7.17662C40.7459 9.16776 39.5783 12.8116 39.0087 16.5644L39.022 16.6981C37.9793 16.9309 36.9033 17.0118 35.8373 16.9391L35.8407 16.8582C34.5781 13.2755 32.7493 9.90907 29.2498 8.53707C25.7504 7.16507 21.4848 7.75448 18.7465 10.335C17.3974 11.6063 16.4696 13.259 15.5635 14.8853C14.5258 16.7443 13.245 18.643 12.209 20.502C13.0751 20.8768 14.1378 20.7266 14.8656 20.1273C14.5408 21.2004 13.6414 22.1712 12.5904 22.518L12.4871 22.5493C18.7182 26.2691 27.0562 25.9471 32.9558 21.7568C34.0251 20.9974 35.0512 20.1075 36.307 19.7459C38.6989 19.0574 41.134 20.4327 43.4575 21.3507C50.1 23.9758 58.0599 22.7607 63.6164 18.2715C62.2622 18.2187 60.9747 17.0778 60.2369 15.9188L60.2335 15.9205ZM28.1772 21.9005C25.0958 22.1861 22.3575 19.8813 22.0611 16.7526C21.7646 13.6239 24.0248 10.8551 27.1062 10.5695C30.1876 10.2839 32.9258 12.5887 33.2223 15.7174C33.5188 18.8461 31.2586 21.6148 28.1772 21.9005ZM47.6615 20.0926C44.5801 20.3782 41.8419 18.0734 41.5454 14.9447C41.2489 11.816 43.5091 9.04724 46.5905 8.76161C49.6719 8.47598 52.4102 10.7808 52.7066 13.9095C53.0014 17.0382 50.7429 19.807 47.6615 20.0926Z" fill="#021A1A"/>
<path d="M30.4542 15.9733C30.4309 15.7289 30.3759 15.4961 30.2976 15.2766C30.1394 15.9271 29.5931 16.4356 28.8985 16.5C28.0191 16.5809 27.2379 15.9238 27.1546 15.0322C27.088 14.3272 27.4778 13.6866 28.0774 13.4093C27.8492 13.3729 27.6143 13.3597 27.3728 13.3828C25.8205 13.5265 24.6829 14.9216 24.8311 16.4983C24.9793 18.0751 26.3585 19.2357 27.9108 19.0921C29.4632 18.9484 30.6008 17.5533 30.4525 15.9766L30.4542 15.9733Z" fill="#021A1A"/>
<path d="M49.9369 14.1671C49.9135 13.9228 49.8586 13.69 49.7803 13.4704C49.6237 14.1209 49.0757 14.6294 48.3812 14.6938C47.5017 14.7747 46.7206 14.1176 46.6373 13.2261C46.5707 12.5211 46.9604 11.8805 47.56 11.6031C47.3319 11.5668 47.097 11.5536 46.8555 11.5767C45.3031 11.7203 44.1655 13.1154 44.3138 14.6922C44.462 16.2689 45.8411 17.4296 47.3935 17.2859C48.9458 17.1423 50.0834 15.7472 49.9352 14.1704L49.9369 14.1671Z" fill="#021A1A"/>
<path d="M77.7159 12.9733C76.2519 10.7362 73.7151 9.59696 71.0552 10.0658C68.3952 10.5347 66.5247 12.3608 65.6369 14.725C64.7741 17.0233 65.0356 19.8845 66.598 21.8294C68.3652 24.0302 71.34 23.9328 73.4586 22.2785C75.8371 20.4227 77.3745 17.3304 78.2773 14.5286C78.7669 13.0063 76.3568 12.3558 75.8688 13.8698C75.1426 16.1251 73.9367 18.595 72.1112 20.1833C71.3516 20.8437 70.234 21.377 69.248 20.8834C68.4152 20.4673 67.9838 19.5015 67.7822 18.6479C67.3042 16.6254 68.092 14.2215 69.9176 13.1087C71.7431 11.9959 74.2998 12.3013 75.5573 14.2215C76.4301 15.5539 78.5937 14.3139 77.7143 12.9717L77.7159 12.9733Z" fill="#021A1A"/>
<path d="M80.206 0.602188C77.8974 5.74678 76.7182 11.3438 76.9147 16.982C77.003 19.5097 77.2911 22.399 79.6646 23.8783C81.8999 25.2718 84.8863 24.0137 85.1495 21.3622C85.2161 20.6952 84.5282 20.1239 83.9003 20.1239C83.1691 20.1239 82.7177 20.6935 82.6511 21.3622C82.5894 21.9747 81.685 22.0903 81.2386 21.9153C80.5124 21.6313 80.0527 20.885 79.8195 20.185C79.1883 18.2814 79.3348 15.9864 79.4348 14.0118C79.6446 9.83307 80.6457 5.67744 82.3613 1.85366C82.6377 1.23783 82.5361 0.529542 81.9132 0.159713C81.3835 -0.153982 80.4774 -0.00538973 80.2043 0.603839L80.206 0.602188Z" fill="#021A1A"/>
<path d="M15.4287 7.49866C14.6142 4.25605 11.766 1.66394 8.40316 1.24788C5.04029 0.83182 1.90062 2.818 0.593116 5.78159C-1.04918 9.50631 1.16275 12.8843 3.16149 15.9453C5.30513 19.2275 7.17061 22.84 8.27824 26.606C8.69797 28.0325 9.18267 30.4413 7.46043 31.2503C5.79482 32.0329 4.34574 30.6081 4.55061 28.9488C4.63222 28.2834 3.91767 27.7105 3.3014 27.7105C2.55854 27.7105 2.13547 28.2818 2.05219 28.9488C1.58415 32.7181 5.99469 35.2772 9.12104 33.1457C12.4822 30.8524 10.9316 26.2956 9.73232 23.2643C8.97447 21.3458 8.10335 19.4702 7.10565 17.6624C6.10795 15.8545 4.99033 14.2943 3.95099 12.5921C3.08987 11.1804 2.24374 9.53107 2.54355 7.82887C2.81004 6.31322 3.87603 5.01057 5.21185 4.27091C8.40649 2.50266 12.1991 4.89004 13.0202 8.15742C13.4083 9.70278 15.8185 9.04897 15.4287 7.49866Z" fill="#021A1A"/>
<path d="M2.53693 23.1273C2.35537 21.5703 3.00496 20.2413 4.40574 19.4851C5.95642 18.648 7.7886 18.4565 9.28265 17.4841C10.5652 16.6503 11.6328 15.3196 11.6578 13.7379C11.6828 12.1562 10.7451 10.8667 9.29098 10.3747C7.76528 9.85962 7.11069 12.2503 8.6264 12.7621C9.69738 13.1237 8.94786 14.5452 8.44151 15.0141C7.4105 15.9668 5.90479 16.226 4.62394 16.7015C3.22316 17.2215 1.9423 17.9282 1.06286 19.1615C0.250044 20.3007 -0.124719 21.7404 0.0368454 23.1256C0.115129 23.7893 0.55485 24.3639 1.28605 24.3639C1.90066 24.3639 2.61354 23.7943 2.53526 23.1256L2.53693 23.1273Z" fill="#021A1A"/>
</svg>
