<svg width="36" height="36" viewBox="0 0 36 36" fill="none" xmlns="http://www.w3.org/2000/svg">
<path d="M30 15.75C29.6022 15.75 29.2206 15.908 28.9393 16.1893C28.658 16.4706 28.5 16.8522 28.5 17.25V27.75C28.5 28.1478 28.342 28.5294 28.0607 28.8107C27.7794 29.092 27.3978 29.25 27 29.25H6C5.60218 29.25 5.22064 29.092 4.93934 28.8107C4.65804 28.5294 4.5 28.1478 4.5 27.75V15.75C4.5 15.3522 4.65804 14.9706 4.93934 14.6893C5.22064 14.408 5.60218 14.25 6 14.25H9C9.3271 14.2671 9.6508 14.1766 9.92165 13.9924C10.1925 13.8082 10.3956 13.5405 10.5 13.23L11.31 10.77C11.4106 10.4721 11.6023 10.2133 11.8581 10.0303C12.1138 9.84723 12.4205 9.74919 12.735 9.75H21C21.3978 9.75 21.7794 9.59196 22.0607 9.31066C22.342 9.02935 22.5 8.64782 22.5 8.25C22.5 7.85217 22.342 7.47064 22.0607 7.18934C21.7794 6.90804 21.3978 6.75 21 6.75H12.66C11.7173 6.75176 10.799 7.04952 10.0346 7.60126C9.2703 8.15299 8.69851 8.93083 8.4 9.825L7.92 11.325H6C4.80653 11.325 3.66193 11.7991 2.81802 12.643C1.97411 13.4869 1.5 14.6315 1.5 15.825V27.825C1.5 29.0185 1.97411 30.1631 2.81802 31.007C3.66193 31.8509 4.80653 32.325 6 32.325H27C28.1935 32.325 29.3381 31.8509 30.182 31.007C31.0259 30.1631 31.5 29.0185 31.5 27.825V17.325C31.5102 17.1218 31.4789 16.9187 31.4081 16.7279C31.3373 16.5372 31.2284 16.3628 31.0881 16.2155C30.9478 16.0682 30.7789 15.9509 30.5919 15.8709C30.4048 15.7909 30.2035 15.7497 30 15.75V15.75ZM16.5 14.25C15.3133 14.25 14.1533 14.6019 13.1666 15.2612C12.1799 15.9205 11.4108 16.8575 10.9567 17.9539C10.5026 19.0503 10.3838 20.2567 10.6153 21.4205C10.8468 22.5844 11.4182 23.6535 12.2574 24.4926C13.0965 25.3318 14.1656 25.9032 15.3295 26.1347C16.4933 26.3662 17.6997 26.2474 18.7961 25.7933C19.8925 25.3392 20.8295 24.5701 21.4888 23.5834C22.1481 22.5967 22.5 21.4367 22.5 20.25C22.5 18.6587 21.8679 17.1326 20.7426 16.0074C19.6174 14.8821 18.0913 14.25 16.5 14.25V14.25ZM16.5 23.25C15.9067 23.25 15.3266 23.0741 14.8333 22.7444C14.3399 22.4148 13.9554 21.9462 13.7284 21.398C13.5013 20.8499 13.4419 20.2467 13.5576 19.6647C13.6734 19.0828 13.9591 18.5482 14.3787 18.1287C14.7982 17.7091 15.3328 17.4234 15.9147 17.3076C16.4967 17.1919 17.0999 17.2513 17.648 17.4784C18.1962 17.7054 18.6648 18.0899 18.9944 18.5833C19.3241 19.0766 19.5 19.6567 19.5 20.25C19.5 21.0456 19.1839 21.8087 18.6213 22.3713C18.0587 22.9339 17.2956 23.25 16.5 23.25ZM33 6.75H31.5V5.25C31.5 4.85218 31.342 4.47064 31.0607 4.18934C30.7794 3.90804 30.3978 3.75 30 3.75C29.6022 3.75 29.2206 3.90804 28.9393 4.18934C28.658 4.47064 28.5 4.85218 28.5 5.25V6.75H27C26.6022 6.75 26.2206 6.90804 25.9393 7.18934C25.658 7.47064 25.5 7.85217 25.5 8.25C25.5 8.64782 25.658 9.02935 25.9393 9.31066C26.2206 9.59196 26.6022 9.75 27 9.75H28.5V11.25C28.5 11.6478 28.658 12.0294 28.9393 12.3107C29.2206 12.592 29.6022 12.75 30 12.75C30.3978 12.75 30.7794 12.592 31.0607 12.3107C31.342 12.0294 31.5 11.6478 31.5 11.25V9.75H33C33.3978 9.75 33.7794 9.59196 34.0607 9.31066C34.342 9.02935 34.5 8.64782 34.5 8.25C34.5 7.85217 34.342 7.47064 34.0607 7.18934C33.7794 6.90804 33.3978 6.75 33 6.75Z" fill="#03624C"/>
</svg>
