<svg width="32" height="32" viewBox="0 0 32 32" fill="none" xmlns="http://www.w3.org/2000/svg">
<g clip-path="url(#clip0_2012_2791)">
<path d="M1 13C1.26522 13 1.51957 12.8946 1.70711 12.7071C1.89464 12.5196 2 12.2652 2 12V3C2 2.73478 2.10536 2.48043 2.29289 2.29289C2.48043 2.10536 2.73478 2 3 2H12C12.2652 2 12.5196 1.89464 12.7071 1.70711C12.8946 1.51957 13 1.26522 13 1C13 0.734784 12.8946 0.48043 12.7071 0.292893C12.5196 0.105357 12.2652 0 12 0L3 0C2.20435 0 1.44129 0.31607 0.87868 0.87868C0.31607 1.44129 0 2.20435 0 3L0 12C0 12.2652 0.105357 12.5196 0.292893 12.7071C0.48043 12.8946 0.734784 13 1 13Z" fill="#03624C"/>
<path d="M29 0H20C19.7348 0 19.4804 0.105357 19.2929 0.292893C19.1054 0.48043 19 0.734784 19 1C19 1.26522 19.1054 1.51957 19.2929 1.70711C19.4804 1.89464 19.7348 2 20 2H29C29.2652 2 29.5196 2.10536 29.7071 2.29289C29.8946 2.48043 30 2.73478 30 3V12C30 12.2652 30.1054 12.5196 30.2929 12.7071C30.4804 12.8946 30.7348 13 31 13C31.2652 13 31.5196 12.8946 31.7071 12.7071C31.8946 12.5196 32 12.2652 32 12V3C32 2.20435 31.6839 1.44129 31.1213 0.87868C30.5587 0.31607 29.7956 0 29 0Z" fill="#03624C"/>
<path d="M12 30H3C2.73478 30 2.48043 29.8946 2.29289 29.7071C2.10536 29.5196 2 29.2652 2 29V20C2 19.7348 1.89464 19.4804 1.70711 19.2929C1.51957 19.1054 1.26522 19 1 19C0.734784 19 0.48043 19.1054 0.292893 19.2929C0.105357 19.4804 0 19.7348 0 20L0 29C0 29.7956 0.31607 30.5587 0.87868 31.1213C1.44129 31.6839 2.20435 32 3 32H12C12.2652 32 12.5196 31.8946 12.7071 31.7071C12.8946 31.5196 13 31.2652 13 31C13 30.7348 12.8946 30.4804 12.7071 30.2929C12.5196 30.1054 12.2652 30 12 30Z" fill="#03624C"/>
<path d="M31 19C30.7348 19 30.4804 19.1054 30.2929 19.2929C30.1054 19.4804 30 19.7348 30 20V29C30 29.2652 29.8946 29.5196 29.7071 29.7071C29.5196 29.8946 29.2652 30 29 30H20C19.7348 30 19.4804 30.1054 19.2929 30.2929C19.1054 30.4804 19 30.7348 19 31C19 31.2652 19.1054 31.5196 19.2929 31.7071C19.4804 31.8946 19.7348 32 20 32H29C29.7956 32 30.5587 31.6839 31.1213 31.1213C31.6839 30.5587 32 29.7956 32 29V20C32 19.7348 31.8946 19.4804 31.7071 19.2929C31.5196 19.1054 31.2652 19 31 19Z" fill="#03624C"/>
<path d="M31 15H1C0.734784 15 0.48043 15.1054 0.292893 15.2929C0.105357 15.4804 0 15.7348 0 16C0 16.2652 0.105357 16.5196 0.292893 16.7071C0.48043 16.8946 0.734784 17 1 17H31C31.2652 17 31.5196 16.8946 31.7071 16.7071C31.8946 16.5196 32 16.2652 32 16C32 15.7348 31.8946 15.4804 31.7071 15.2929C31.5196 15.1054 31.2652 15 31 15Z" fill="#03624C"/>
<path d="M5 7V12C5 12.2652 5.10536 12.5196 5.29289 12.7071C5.48043 12.8946 5.73478 13 6 13C6.26522 13 6.51957 12.8946 6.70711 12.7071C6.89464 12.5196 7 12.2652 7 12V7C7 6.73478 6.89464 6.48043 6.70711 6.29289C6.51957 6.10536 6.26522 6 6 6C5.73478 6 5.48043 6.10536 5.29289 6.29289C5.10536 6.48043 5 6.73478 5 7Z" fill="#03624C"/>
<path d="M9 7V12C9 12.2652 9.10536 12.5196 9.29289 12.7071C9.48043 12.8946 9.73478 13 10 13C10.2652 13 10.5196 12.8946 10.7071 12.7071C10.8946 12.5196 11 12.2652 11 12V7C11 6.73478 10.8946 6.48043 10.7071 6.29289C10.5196 6.10536 10.2652 6 10 6C9.73478 6 9.48043 6.10536 9.29289 6.29289C9.10536 6.48043 9 6.73478 9 7Z" fill="#03624C"/>
<path d="M13 12C13 12.2652 13.1054 12.5196 13.2929 12.7071C13.4804 12.8946 13.7348 13 14 13C14.2652 13 14.5196 12.8946 14.7071 12.7071C14.8946 12.5196 15 12.2652 15 12V7C15 6.73478 14.8946 6.48043 14.7071 6.29289C14.5196 6.10536 14.2652 6 14 6C13.7348 6 13.4804 6.10536 13.2929 6.29289C13.1054 6.48043 13 6.73478 13 7V12Z" fill="#03624C"/>
<path d="M18 13C18.2652 13 18.5196 12.8946 18.7071 12.7071C18.8946 12.5196 19 12.2652 19 12V7C19 6.73478 18.8946 6.48043 18.7071 6.29289C18.5196 6.10536 18.2652 6 18 6C17.7348 6 17.4804 6.10536 17.2929 6.29289C17.1054 6.48043 17 6.73478 17 7V12C17 12.2652 17.1054 12.5196 17.2929 12.7071C17.4804 12.8946 17.7348 13 18 13Z" fill="#03624C"/>
<path d="M23 12V7C23 6.73478 22.8946 6.48043 22.7071 6.29289C22.5196 6.10536 22.2652 6 22 6C21.7348 6 21.4804 6.10536 21.2929 6.29289C21.1054 6.48043 21 6.73478 21 7V12C21 12.2652 21.1054 12.5196 21.2929 12.7071C21.4804 12.8946 21.7348 13 22 13C22.2652 13 22.5196 12.8946 22.7071 12.7071C22.8946 12.5196 23 12.2652 23 12Z" fill="#03624C"/>
<path d="M27 12V7C27 6.73478 26.8946 6.48043 26.7071 6.29289C26.5196 6.10536 26.2652 6 26 6C25.7348 6 25.4804 6.10536 25.2929 6.29289C25.1054 6.48043 25 6.73478 25 7V12C25 12.2652 25.1054 12.5196 25.2929 12.7071C25.4804 12.8946 25.7348 13 26 13C26.2652 13 26.5196 12.8946 26.7071 12.7071C26.8946 12.5196 27 12.2652 27 12Z" fill="#03624C"/>
<path d="M7 23V20C7 19.7348 6.89464 19.4804 6.70711 19.2929C6.51957 19.1054 6.26522 19 6 19C5.73478 19 5.48043 19.1054 5.29289 19.2929C5.10536 19.4804 5 19.7348 5 20V23C5 23.2652 5.10536 23.5196 5.29289 23.7071C5.48043 23.8946 5.73478 24 6 24C6.26522 24 6.51957 23.8946 6.70711 23.7071C6.89464 23.5196 7 23.2652 7 23Z" fill="#03624C"/>
<path d="M11 25V20C11 19.7348 10.8946 19.4804 10.7071 19.2929C10.5196 19.1054 10.2652 19 10 19C9.73478 19 9.48043 19.1054 9.29289 19.2929C9.10536 19.4804 9 19.7348 9 20V25C9 25.2652 9.10536 25.5196 9.29289 25.7071C9.48043 25.8946 9.73478 26 10 26C10.2652 26 10.5196 25.8946 10.7071 25.7071C10.8946 25.5196 11 25.2652 11 25Z" fill="#03624C"/>
<path d="M14 19C13.7348 19 13.4804 19.1054 13.2929 19.2929C13.1054 19.4804 13 19.7348 13 20V22.5C13 22.7652 13.1054 23.0196 13.2929 23.2071C13.4804 23.3946 13.7348 23.5 14 23.5C14.2652 23.5 14.5196 23.3946 14.7071 23.2071C14.8946 23.0196 15 22.7652 15 22.5V20C15 19.7348 14.8946 19.4804 14.7071 19.2929C14.5196 19.1054 14.2652 19 14 19Z" fill="#03624C"/>
<path d="M18 22C18.2652 22 18.5196 21.8946 18.7071 21.7071C18.8946 21.5196 19 21.2652 19 21V20C19 19.7348 18.8946 19.4804 18.7071 19.2929C18.5196 19.1054 18.2652 19 18 19C17.7348 19 17.4804 19.1054 17.2929 19.2929C17.1054 19.4804 17 19.7348 17 20V21C17 21.2652 17.1054 21.5196 17.2929 21.7071C17.4804 21.8946 17.7348 22 18 22Z" fill="#03624C"/>
<path d="M23 25V20C23 19.7348 22.8946 19.4804 22.7071 19.2929C22.5196 19.1054 22.2652 19 22 19C21.7348 19 21.4804 19.1054 21.2929 19.2929C21.1054 19.4804 21 19.7348 21 20V25C21 25.2652 21.1054 25.5196 21.2929 25.7071C21.4804 25.8946 21.7348 26 22 26C22.2652 26 22.5196 25.8946 22.7071 25.7071C22.8946 25.5196 23 25.2652 23 25Z" fill="#03624C"/>
<path d="M27 23.5V20C27 19.7348 26.8946 19.4804 26.7071 19.2929C26.5196 19.1054 26.2652 19 26 19C25.7348 19 25.4804 19.1054 25.2929 19.2929C25.1054 19.4804 25 19.7348 25 20V23.5C25 23.7652 25.1054 24.0196 25.2929 24.2071C25.4804 24.3946 25.7348 24.5 26 24.5C26.2652 24.5 26.5196 24.3946 26.7071 24.2071C26.8946 24.0196 27 23.7652 27 23.5Z" fill="#03624C"/>
<path d="M18 26C18.5523 26 19 25.5523 19 25C19 24.4477 18.5523 24 18 24C17.4477 24 17 24.4477 17 25C17 25.5523 17.4477 26 18 26Z" fill="#03624C"/>
</g>
<defs>
<clipPath id="clip0_2012_2791">
<rect width="32" height="32" fill="white"/>
</clipPath>
</defs>
</svg>
