<svg width="38" height="38" viewBox="0 0 38 38" fill="none" xmlns="http://www.w3.org/2000/svg">
<path d="M32.7908 26.4576L28.9592 22.6259C28.812 22.4775 28.6369 22.3597 28.4439 22.2793C28.251 22.199 28.044 22.1576 27.835 22.1576C27.626 22.1576 27.419 22.199 27.2261 22.2793C27.0331 22.3597 26.858 22.4775 26.7108 22.6259L21.0425 28.2942C20.8958 28.4422 20.7797 28.6177 20.7009 28.8106C20.6221 29.0035 20.5821 29.21 20.5833 29.4184V33.2501C20.5833 33.67 20.7501 34.0727 21.0471 34.3697C21.344 34.6666 21.7467 34.8334 22.1667 34.8334H25.9983C26.2067 34.8346 26.4133 34.7947 26.6062 34.7159C26.7991 34.6371 26.9746 34.521 27.1225 34.3742L32.7908 28.7059C32.9392 28.5587 33.057 28.3836 33.1374 28.1907C33.2178 27.9977 33.2592 27.7908 33.2592 27.5817C33.2592 27.3727 33.2178 27.1658 33.1374 26.9728C33.057 26.7799 32.9392 26.6048 32.7908 26.4576V26.4576ZM25.3333 31.6667H23.75V30.0834L27.835 25.9984L29.4183 27.5817L25.3333 31.6667ZM15.8333 31.6667H9.5C9.08007 31.6667 8.67735 31.4999 8.38041 31.203C8.08348 30.9061 7.91667 30.5033 7.91667 30.0834V7.91675C7.91667 7.49682 8.08348 7.0941 8.38041 6.79716C8.67735 6.50023 9.08007 6.33341 9.5 6.33341H17.4167V11.0834C17.4167 12.3432 17.9171 13.5514 18.8079 14.4422C19.6987 15.333 20.9069 15.8334 22.1667 15.8334H26.9167V17.4167C26.9167 17.8367 27.0835 18.2394 27.3804 18.5363C27.6773 18.8333 28.0801 19.0001 28.5 19.0001C28.9199 19.0001 29.3227 18.8333 29.6196 18.5363C29.9165 18.2394 30.0833 17.8367 30.0833 17.4167V14.2501C30.0833 14.2501 30.0833 14.2501 30.0833 14.1551C30.0668 14.0096 30.035 13.8663 29.9883 13.7276V13.5851C29.9122 13.4223 29.8107 13.2726 29.6875 13.1417L20.1875 3.64175C20.0566 3.51859 19.907 3.41704 19.7442 3.34091C19.6969 3.3342 19.6489 3.3342 19.6017 3.34091L19.095 3.16675H9.5C8.24022 3.16675 7.03204 3.66719 6.14124 4.55799C5.25045 5.44879 4.75 6.65697 4.75 7.91675V30.0834C4.75 31.3432 5.25045 32.5514 6.14124 33.4422C7.03204 34.333 8.24022 34.8334 9.5 34.8334H15.8333C16.2533 34.8334 16.656 34.6666 16.9529 34.3697C17.2499 34.0727 17.4167 33.67 17.4167 33.2501C17.4167 32.8302 17.2499 32.4274 16.9529 32.1305C16.656 31.8336 16.2533 31.6667 15.8333 31.6667ZM20.5833 8.56591L24.6842 12.6667H22.1667C21.7467 12.6667 21.344 12.4999 21.0471 12.203C20.7501 11.9061 20.5833 11.5033 20.5833 11.0834V8.56591ZM12.6667 22.1667H22.1667C22.5866 22.1667 22.9893 21.9999 23.2863 21.703C23.5832 21.4061 23.75 21.0033 23.75 20.5834C23.75 20.1635 23.5832 19.7608 23.2863 19.4638C22.9893 19.1669 22.5866 19.0001 22.1667 19.0001H12.6667C12.2467 19.0001 11.844 19.1669 11.5471 19.4638C11.2501 19.7608 11.0833 20.1635 11.0833 20.5834C11.0833 21.0033 11.2501 21.4061 11.5471 21.703C11.844 21.9999 12.2467 22.1667 12.6667 22.1667ZM12.6667 15.8334H14.25C14.6699 15.8334 15.0727 15.6666 15.3696 15.3697C15.6665 15.0727 15.8333 14.67 15.8333 14.2501C15.8333 13.8302 15.6665 13.4274 15.3696 13.1305C15.0727 12.8336 14.6699 12.6667 14.25 12.6667H12.6667C12.2467 12.6667 11.844 12.8336 11.5471 13.1305C11.2501 13.4274 11.0833 13.8302 11.0833 14.2501C11.0833 14.67 11.2501 15.0727 11.5471 15.3697C11.844 15.6666 12.2467 15.8334 12.6667 15.8334ZM15.8333 25.3334H12.6667C12.2467 25.3334 11.844 25.5002 11.5471 25.7972C11.2501 26.0941 11.0833 26.4968 11.0833 26.9167C11.0833 27.3367 11.2501 27.7394 11.5471 28.0363C11.844 28.3333 12.2467 28.5001 12.6667 28.5001H15.8333C16.2533 28.5001 16.656 28.3333 16.9529 28.0363C17.2499 27.7394 17.4167 27.3367 17.4167 26.9167C17.4167 26.4968 17.2499 26.0941 16.9529 25.7972C16.656 25.5002 16.2533 25.3334 15.8333 25.3334Z" fill="#03624C"/>
</svg>
