<svg width="56" height="56" viewBox="0 0 56 56" fill="none" xmlns="http://www.w3.org/2000/svg">
<circle cx="28" cy="28" r="28" fill="#03624C"/>
<path d="M40.158 27.0505L29.9496 16.8422C29.7555 16.6563 29.5265 16.5106 29.2759 16.4134C28.7788 16.2092 28.2213 16.2092 27.7242 16.4134C27.4736 16.5106 27.2446 16.6563 27.0505 16.8422L16.8421 27.0505C16.6518 27.2409 16.5008 27.4668 16.3977 27.7156C16.2947 27.9643 16.2417 28.2309 16.2417 28.5001C16.2417 29.0438 16.4577 29.5652 16.8421 29.9497C17.2266 30.3341 17.748 30.5501 18.2917 30.5501C18.8354 30.5501 19.3568 30.3341 19.7413 29.9497L26.4584 23.2122V38.7084C26.4584 39.2499 26.6735 39.7692 27.0564 40.1521C27.4393 40.535 27.9586 40.7501 28.5001 40.7501C29.0415 40.7501 29.5608 40.535 29.9437 40.1521C30.3266 39.7692 30.5417 39.2499 30.5417 38.7084V23.2122L37.2588 29.9497C37.4486 30.141 37.6744 30.2929 37.9232 30.3966C38.172 30.5002 38.4389 30.5536 38.7084 30.5536C38.9779 30.5536 39.2448 30.5002 39.4936 30.3966C39.7424 30.2929 39.9682 30.141 40.158 29.9497C40.3493 29.7599 40.5012 29.534 40.6049 29.2853C40.7085 29.0365 40.7619 28.7696 40.7619 28.5001C40.7619 28.2305 40.7085 27.9637 40.6049 27.7149C40.5012 27.4661 40.3493 27.2403 40.158 27.0505Z" fill="#F1F7F7"/>
</svg>
