<svg width="45" height="45" viewBox="0 0 45 45" fill="none" xmlns="http://www.w3.org/2000/svg">
<path d="M22.5 0C10.0935 0 0 10.0935 0 22.5C0 34.9065 10.0935 45 22.5 45C34.9065 45 45 34.9065 45 22.5C45 10.0935 34.9065 0 22.5 0ZM22.5 42C11.7473 42 3 33.2527 3 22.5C3 11.7473 11.7473 3 22.5 3C33.2527 3 42 11.7473 42 22.5C42 33.2527 33.2527 42 22.5 42Z" fill="#03624C"/>
<path d="M33.5025 24.3259V21.9961C33.5025 16.3072 29.3609 11.4376 24.0001 10.6986V9.23438C24.0001 8.406 23.3285 7.73438 22.5001 7.73438C21.6717 7.73438 21.0001 8.406 21.0001 9.23438V10.6938C18.8142 10.9876 16.7767 11.9199 15.1004 13.4443C12.8109 15.5266 11.4976 18.4944 11.4976 21.5874V24.3259C11.4976 25.8611 10.9791 27.375 10.0372 28.5871C9.45123 29.3408 9.34871 30.342 9.76764 31.1997C10.188 32.0574 11.0413 32.5898 11.9964 32.5898H17.4727C17.6763 35.1986 19.8398 37.2656 22.5001 37.2656C25.1603 37.2656 27.3238 35.1986 27.5274 32.5898H33.0037C33.9588 32.5898 34.8121 32.0574 35.2325 31.1997C35.6514 30.342 35.5489 29.3408 34.9629 28.5879C34.0211 27.375 33.5025 25.8611 33.5025 24.3259ZM22.5001 34.2656C21.4937 34.2656 20.6536 33.5435 20.4705 32.5898H24.5296C24.3465 33.5435 23.5064 34.2656 22.5001 34.2656ZM12.9896 29.5898C13.9674 28.0181 14.4976 26.1833 14.4976 24.3259V21.5874C14.4976 19.3374 15.4527 17.179 17.119 15.6643C18.8079 14.1299 20.9964 13.4063 23.2911 13.623C27.3348 14.0083 30.5025 17.6865 30.5025 21.9961V24.3259C30.5025 26.1833 31.0328 28.0181 32.0106 29.5898H12.9896Z" fill="#03624C"/>
</svg>
