<svg width="20" height="20" viewBox="0 0 20 20" fill="none" xmlns="http://www.w3.org/2000/svg">
<g clip-path="url(#clip0_2012_2816)">
<path d="M2.25536 2.25606C5.25079 -0.740301 10.1076 -0.740301 13.103 2.25606C15.3607 4.51442 15.9168 7.83057 14.7711 10.6099C14.4907 11.2907 14.6416 12.073 15.1619 12.5935L19.4602 16.8932C20.1688 17.602 20.1688 18.7512 19.4602 19.4601C19.1059 19.8145 18.6416 19.9915 18.1772 19.9915C17.7128 19.9915 17.2485 19.8145 16.8942 19.4601L12.5986 15.1631C12.0774 14.6418 11.2945 14.4913 10.6136 14.7729C7.83358 15.9229 4.51496 15.3674 2.25536 13.1071C-0.740068 10.1107 -0.740068 5.25242 2.25536 2.25606ZM9.66265 12.2263C10.2176 11.9765 10.7376 11.6237 11.193 11.1677C11.6403 10.7203 11.9884 10.2115 12.2369 9.66799C13.1108 7.76093 12.7627 5.43138 11.193 3.86123C9.17612 1.84368 5.90611 1.84368 3.88881 3.86123C1.87189 5.87877 1.87189 9.14979 3.88881 11.1673C5.44992 12.7289 7.76163 13.0818 9.66226 12.2259L9.66265 12.2263Z" fill="#03624C"/>
<path d="M5.63207 5.09253C5.7573 5.14855 5.9012 5.13221 6.01476 5.05518C7.1189 4.30512 8.61078 4.46968 9.52551 5.44188C9.61963 5.54187 9.75652 5.58894 9.8907 5.56171C10.429 5.45122 10.5931 4.76846 10.1696 4.41794C8.89624 3.36365 7.08117 3.16368 5.60874 3.9153C5.11909 4.16506 5.13037 4.86728 5.63207 5.09214V5.09253Z" fill="#03624C" stroke="#03624C" stroke-width="0.64" stroke-miterlimit="10"/>
</g>
<defs>
<clipPath id="clip0_2012_2816">
<rect width="20" height="20" fill="white"/>
</clipPath>
</defs>
</svg>
