<svg width="36" height="36" viewBox="0 0 36 36" fill="none" xmlns="http://www.w3.org/2000/svg">
<path d="M31.4693 35.9999H0V9.1958H31.4781V35.9999H31.4693ZM3.43525 34.182H28.0428V11.0137H3.43525V34.182Z" fill="#003B23"/>
<path d="M1.71753 17.2788V35.091H29.7604V17.2788H1.71753ZM7.86066 21.7121C7.86066 21.1835 8.67566 20.7522 9.67468 20.7522C10.6737 20.7522 11.4887 21.1835 11.4887 21.7121C11.4887 22.2408 10.6737 22.6721 9.67468 22.6721C8.67566 22.6721 7.86066 22.2408 7.86066 21.7121ZM12.4614 31.4182C10.6562 31.4182 9.1927 30.6437 9.1927 29.6884C9.1927 28.7331 10.6562 27.9587 12.4614 27.9587C14.2667 27.9587 15.7302 28.7331 15.7302 29.6884C15.7302 30.6437 14.2667 31.4182 12.4614 31.4182ZM19.7263 25.9971C18.7273 25.9971 17.9123 25.5658 17.9123 25.0371C17.9123 24.5085 18.7273 24.0772 19.7263 24.0772C20.7253 24.0772 21.5403 24.5085 21.5403 25.0371C21.5403 25.5658 20.7253 25.9971 19.7263 25.9971Z" fill="#003B23"/>
<path d="M21.5754 19.7321L18.1577 19.5512L20.5939 6.65927L33.6076 0L36 1.30772L23.8802 7.50331L21.5754 19.7321Z" fill="#003B23"/>
</svg>
