<svg width="31" height="25" viewBox="0 0 31 25" fill="none" xmlns="http://www.w3.org/2000/svg">
<path d="M19.2811 4.44674H21.5577C21.7554 3.91456 22.1112 3.45561 22.5773 3.13151C23.0434 2.80742 23.5975 2.63371 24.1652 2.63371C24.7329 2.63371 25.287 2.80742 25.7532 3.13151C26.2193 3.45561 26.5751 3.91456 26.7727 4.44674H30.0288C30.2857 4.44674 30.5322 4.54881 30.7138 4.73048C30.8955 4.91216 30.9976 5.15857 30.9976 5.41549C30.9976 5.67242 30.8955 5.91883 30.7138 6.1005C30.5322 6.28218 30.2857 6.38424 30.0288 6.38424H26.7728C26.5752 6.91641 26.2194 7.37535 25.7533 7.69944C25.2872 8.02352 24.7331 8.19723 24.1654 8.19723C23.5977 8.19723 23.0436 8.02352 22.5775 7.69944C22.1114 7.37535 21.7556 6.91641 21.5579 6.38424H19.2814C19.0245 6.38424 18.7781 6.28218 18.5964 6.1005C18.4147 5.91883 18.3126 5.67242 18.3126 5.41549C18.3126 5.15857 18.4147 4.91216 18.5964 4.73048C18.7781 4.54881 19.0245 4.44674 19.2814 4.44674H19.2811ZM30.0288 11.4359H21.3161C21.1185 10.9037 20.7627 10.4447 20.2966 10.1206C19.8305 9.7965 19.2764 9.62279 18.7086 9.62279C18.1409 9.62279 17.5868 9.7965 17.1207 10.1206C16.6546 10.4447 16.2988 10.9037 16.1012 11.4359H14.9684C14.7115 11.4359 14.4651 11.5379 14.2834 11.7196C14.1017 11.9013 13.9996 12.1477 13.9996 12.4046C13.9996 12.6615 14.1017 12.9079 14.2834 13.0896C14.4651 13.2713 14.7115 13.3734 14.9684 13.3734H16.1011C16.2988 13.9055 16.6545 14.3645 17.1206 14.6886C17.5868 15.0127 18.1409 15.1864 18.7086 15.1864C19.2763 15.1864 19.8304 15.0127 20.2965 14.6886C20.7626 14.3645 21.1184 13.9055 21.3161 13.3734H30.0288C30.2857 13.3734 30.5322 13.2713 30.7138 13.0896C30.8955 12.9079 30.9976 12.6615 30.9976 12.4046C30.9976 12.1477 30.8955 11.9013 30.7138 11.7196C30.5322 11.5379 30.2857 11.4359 30.0288 11.4359ZM30.0288 18.4249H28.9673C28.7696 17.8927 28.4138 17.4337 27.9477 17.1096C27.4816 16.7855 26.9275 16.6118 26.3598 16.6118C25.7921 16.6118 25.2379 16.7855 24.7718 17.1096C24.3057 17.4337 23.95 17.8927 23.7523 18.4249H14.9684C14.7115 18.4249 14.4651 18.527 14.2834 18.7086C14.1017 18.8903 13.9996 19.1367 13.9996 19.3936C13.9996 19.6506 14.1017 19.897 14.2834 20.0787C14.4651 20.2603 14.7115 20.3624 14.9684 20.3624H23.7523C23.95 20.8946 24.3057 21.3535 24.7718 21.6776C25.2379 22.0017 25.7921 22.1755 26.3598 22.1755C26.9275 22.1755 27.4816 22.0017 27.9477 21.6776C28.4138 21.3535 28.7696 20.8946 28.9673 20.3624H30.0288C30.2857 20.3624 30.5322 20.2603 30.7138 20.0787C30.8955 19.897 30.9976 19.6506 30.9976 19.3936C30.9976 19.1367 30.8955 18.8903 30.7138 18.7086C30.5322 18.527 30.2857 18.4249 30.0288 18.4249ZM18.261 2.64711C18.4522 2.40702 18.5718 2.11785 18.606 1.81284C18.6402 1.50783 18.5877 1.19935 18.4544 0.922864C18.3212 0.646376 18.1126 0.413101 17.8527 0.24985C17.5928 0.0865988 17.2921 -2.39639e-06 16.9851 0H1.63064C1.3238 7.01434e-05 1.0232 0.0866944 0.763379 0.249921C0.503556 0.413148 0.295046 0.646357 0.161803 0.922758C0.0285603 1.19916 -0.0240115 1.50754 0.010127 1.81248C0.0442656 2.11741 0.16373 2.40653 0.354796 2.64662L0.807929 3.21577H17.808L18.261 2.64711ZM2.34219 5.14291L6.48456 10.3456V23.1558C6.48455 23.3259 6.52931 23.493 6.61434 23.6402C6.69936 23.7875 6.82165 23.9098 6.96892 23.9948C7.11619 24.0799 7.28325 24.1246 7.4533 24.1246C7.62336 24.1246 7.79041 24.0799 7.93769 23.9948L11.6468 21.8533C11.7941 21.7683 11.9164 21.646 12.0014 21.4987C12.0865 21.3515 12.1312 21.1844 12.1312 21.0144V10.3456L16.2736 5.14291H2.34219Z" fill="#03624C"/>
</svg>
