<svg width="14" height="17" viewBox="0 0 14 17" fill="none" xmlns="http://www.w3.org/2000/svg">
<path fill-rule="evenodd" clip-rule="evenodd" d="M7.46171 6.6951C7.73428 6.28623 8.10907 5.97959 8.552 5.7922C9.18233 5.51962 9.6423 5.11076 9.96598 4.49747C8.62015 4.66783 7.6491 4.59968 7.01878 4.36118C5.94552 3.95232 4.73597 3.81603 3.42421 3.90121C3.49235 4.10564 3.5605 4.31008 3.66271 4.49747C3.96936 5.11076 4.44636 5.53666 5.07669 5.7922C5.51962 5.97959 5.91145 6.30327 6.16698 6.6951C6.91656 7.66614 6.76324 7.90464 7.46171 6.6951ZM3.11756 14.3783L2.38502 14.3612C2.35095 13.1006 2.52131 12.0614 2.93017 11.2777C3.32199 10.5111 3.91825 9.94895 4.73597 9.60823C5.04262 9.47194 5.29815 9.26751 5.48555 8.99494C5.67294 8.72237 5.75812 8.41572 5.75812 8.075C5.75812 7.73428 5.65591 7.42764 5.48555 7.15506C5.29815 6.88249 5.04262 6.67806 4.73597 6.54177C3.91825 6.18402 3.32199 5.63887 2.93017 4.87226C2.53834 4.05454 2.35095 3.01535 2.38502 1.7547H11.2437C11.2777 3.01535 11.1074 4.05454 10.6985 4.83819C10.3067 5.6048 9.71044 6.16698 8.89272 6.5077C8.58608 6.64399 8.33054 6.84842 8.14314 7.12099C7.95575 7.39357 7.85353 7.70021 7.85353 8.04093C7.85353 8.38165 7.95575 8.68829 8.12611 8.96087C8.3135 9.23344 8.56904 9.43787 8.87569 9.57416C9.69341 9.93191 10.2897 10.4771 10.6815 11.2437C11.0903 12.0444 11.2607 13.0835 11.2266 14.3272L10.5963 14.3612C9.23344 12.334 7.8876 11.1585 6.55881 11.0903C5.53666 11.0392 4.37822 12.1977 3.11756 14.3783ZM12.7428 14.3783C13.2369 14.3783 13.6287 14.7701 13.6287 15.2641C13.6287 15.7582 13.2369 16.15 12.7428 16.15H0.885865C0.391825 16.15 3.24249e-07 15.7582 3.24249e-07 15.2641C3.24249e-07 14.7701 0.391825 14.3783 0.885865 14.3783H1.44805C1.39694 12.9643 1.61841 11.7888 2.09541 10.8518C2.58945 9.8808 3.33903 9.18233 4.37822 8.7394C4.5145 8.68829 4.63375 8.58608 4.7019 8.46682C4.77004 8.34757 4.82115 8.21129 4.82115 8.075C4.82115 7.93871 4.77004 7.80243 4.7019 7.68318C4.61672 7.56392 4.5145 7.47875 4.37822 7.4106C3.35606 6.96767 2.58945 6.2692 2.09541 5.29815C1.61841 4.36118 1.41398 3.18571 1.44805 1.77173H0.885865C0.391825 1.77173 0 1.3799 0 0.885865C0 0.391825 0.391825 0 0.885865 0H12.7428C13.2369 8.5e-07 13.6287 0.391826 13.6287 0.885866C13.6287 1.37991 13.2369 1.77173 12.7428 1.77173H12.1806C12.2318 3.18571 12.0103 4.36118 11.5333 5.29816C11.0392 6.2692 10.2897 6.96767 9.25047 7.4106C9.11419 7.46171 8.99494 7.56393 8.92679 7.68318C8.85865 7.80243 8.80754 7.93871 8.80754 8.075C8.80754 8.21129 8.85865 8.34758 8.92679 8.46683C9.01197 8.58608 9.13122 8.68829 9.26751 8.7394C10.2897 9.18233 11.0563 9.8808 11.5503 10.8518C12.0273 11.7888 12.2318 12.9643 12.1977 14.3783L12.7428 14.3783Z" fill="#021A1A"/>
</svg>
